<?xml version="1.0" encoding="UTF-8" standalone="no"?>
<!-- Generator: Adobe Illustrator 13.0.0, SVG Export Plug-In . SVG Version: 6.00 Build 14948)  -->

<svg
   version="1.1"
   id="Layer_1"
   x="0px"
   y="0px"
   width="504"
   height="116.145"
   viewBox="-1 -1 503.99999 116.145"
   enable-background="new -1 -1 568.929 116.145"
   xml:space="preserve"
   sodipodi:docname="emulators.svg"
   inkscape:version="1.4 (86a8ad7, 2024-10-11)"
   inkscape:export-filename="emulators1.png"
   inkscape:export-xdpi="96"
   inkscape:export-ydpi="96"
   xmlns:inkscape="http://www.inkscape.org/namespaces/inkscape"
   xmlns:sodipodi="http://sodipodi.sourceforge.net/DTD/sodipodi-0.dtd"
   xmlns="http://www.w3.org/2000/svg"
   xmlns:svg="http://www.w3.org/2000/svg"
   xmlns:rdf="http://www.w3.org/1999/02/22-rdf-syntax-ns#"
   xmlns:cc="http://creativecommons.org/ns#"
   xmlns:dc="http://purl.org/dc/elements/1.1/"><metadata
   id="metadata23"><rdf:RDF><cc:Work
       rdf:about=""><dc:format>image/svg+xml</dc:format><dc:type
         rdf:resource="http://purl.org/dc/dcmitype/StillImage" /></cc:Work></rdf:RDF></metadata><defs
   id="defs21" /><sodipodi:namedview
   pagecolor="#ffffff"
   bordercolor="#666666"
   borderopacity="1"
   objecttolerance="10"
   gridtolerance="10"
   guidetolerance="10"
   inkscape:pageopacity="0"
   inkscape:pageshadow="2"
   inkscape:window-width="1920"
   inkscape:window-height="1017"
   id="namedview19"
   showgrid="false"
   inkscape:zoom="2.1437965"
   inkscape:cx="247.92465"
   inkscape:cy="29.620349"
   inkscape:window-x="-8"
   inkscape:window-y="-8"
   inkscape:window-maximized="1"
   inkscape:current-layer="Layer_1"
   inkscape:pagecheckerboard="true"
   inkscape:snap-global="false"
   inkscape:showpageshadow="0"
   inkscape:deskcolor="#d1d1d1" />

<path
   d="m 50.709177,61.269781 h -18.24 l -1.248,7.296 h 22.368 l -2.688,15.36 h -40.608 l 10.56,-60 h 40.128 l -4.992,15.36 h -19.68 l -1.344,8.064 h 18.24 z"
   id="text10"
   style="font-style:italic;font-size:96px;font-family:'Changa One';-inkscape-font-specification:'Changa One Italic';text-align:center;fill:#ffffff;stroke-width:1.0089"
   transform="scale(0.96826305,1.0327772)"
   aria-label="E" /><path
   d="m 78.453243,83.925781 h -19.008 l 14.016,-60 h 23.808 l 1.728,30.528 h 0.672 l 12.479997,-30.528 h 23.808 l -7.104,60 h -19.104 l 4.032,-29.088 h -0.672 l -12,29.088 H 87.189243 l -2.016,-29.088 h -0.48 z"
   id="text9"
   style="font-style:italic;font-size:96px;font-family:'Changa One';-inkscape-font-specification:'Changa One Italic';text-align:center;fill:#ffffff;stroke-width:1.0089"
   transform="scale(0.96826305,1.0327772)"
   aria-label="M" /><path
   d="m 166.48532,23.925781 -7.968,45.024 h 6.528 q 3.36,0 4.8,-0.864 1.44,-0.96 2.016,-4.224 l 7.104,-39.936 h 18.24 l -5.952,33.696 q -1.44,8.16 -3.36,13.152 -1.824,4.992 -5.184,8.448 -3.36,3.456 -8.352,4.8 -4.896,1.344 -12.48,1.344 -11.616,0 -16.32,-3.456 -4.608,-3.552 -4.608,-12.096 0,-4.704 1.344,-12.192 l 5.952,-33.696 z"
   id="text8"
   style="font-style:italic;font-size:96px;font-family:'Changa One';-inkscape-font-specification:'Changa One Italic';text-align:center;fill:#ffffff;stroke-width:1.0089"
   transform="scale(0.96826305,1.0327772)"
   aria-label="U" /><path
   d="m 233.78136,83.925781 h -36.48 l 10.56,-60 h 18.24 l -7.872,44.64 h 18.24 z"
   id="text7"
   style="font-style:italic;font-size:96px;font-family:'Changa One';-inkscape-font-specification:'Changa One Italic';text-align:center;fill:#ffffff;stroke-width:1.0089"
   transform="scale(0.96826305,1.0327772)"
   aria-label="L" /><path
   d="m 247.02949,83.925781 h -19.2 l 25.248,-60 h 28.224 l 4.224,60 h -19.296 l -0.384,-9.504 h -15.072 z m 16.416,-41.568 -6.72,16.8 h 7.68 v -16.8 z"
   id="text6"
   style="font-style:italic;font-size:96px;font-family:'Changa One';-inkscape-font-specification:'Changa One Italic';text-align:center;fill:#ffffff;stroke-width:1.0089"
   transform="scale(0.96826305,1.0327772)"
   aria-label="A" /><path
   d="m 336.59743,39.285781 h -13.248 l -7.776,44.64 h -18.24 l 7.776,-44.64 h -13.152 l 2.784,-15.36 h 44.64 z"
   id="text5"
   style="font-style:italic;font-size:96px;font-family:'Changa One';-inkscape-font-specification:'Changa One Italic';text-align:center;fill:#ffffff;stroke-width:1.0089"
   transform="scale(0.96826305,1.0327772)"
   aria-label="T" /><path
   d="m 360.40543,43.989781 -4.416,24.96 h 7.584 q 3.744,0 5.568,-0.864 1.824,-0.96 2.4,-4.224 l 4.416,-24.96 h -7.68 q -3.648,0 -5.472,0.96 -1.824,0.864 -2.4,4.128 z m 11.04,-21.504 q 12.192,0 17.376,4.8 5.184,4.704 5.184,14.592 0,9.888 -3.168,20.736 -3.072,10.752 -9.888,16.8 -6.72,5.952 -19.776,5.952 -12.96,0 -18.144,-4.704 -5.184,-4.8 -5.184,-14.688 0,-4.704 1.344,-12.384 1.344,-7.776 3.552,-13.344 2.208,-5.664 5.952,-9.792 7.2,-7.968 22.752,-7.968 z"
   id="text4"
   style="font-style:italic;font-size:96px;font-family:'Changa One';-inkscape-font-specification:'Changa One Italic';text-align:center;fill:#ffffff;stroke-width:1.0089"
   transform="scale(0.96826305,1.0327772)"
   aria-label="O" /><path
   d="m 446.70935,83.925781 h -20.064 l -4.416,-17.856 h -3.936 l -3.072,17.856 h -18.24 l 10.56,-60 h 28.8 q 16.416,0 16.416,14.688 0,6.048 -1.824,11.52 -3.36,10.368 -10.56,13.824 z m -23.712,-44.64 -2.112,12 h 4.224 q 3.264,0 4.896,-0.672 1.728,-0.768 2.304,-4.128 0.672,-3.456 0.672,-4.224 0,-1.92 -1.536,-2.4 -1.44,-0.576 -4.8,-0.576 z"
   id="text3"
   style="font-style:italic;font-size:96px;font-family:'Changa One';-inkscape-font-specification:'Changa One Italic';text-align:center;fill:#ffffff;stroke-width:1.0089"
   transform="scale(0.96826305,1.0327772)"
   aria-label="R" /><path
   d="m 452.75744,82.869781 5.376,-15.84 q 8.064,2.208 14.784,2.208 6.72,0 10.848,-0.576 l 0.768,-4.8 -7.968,-0.768 q -9.12,-0.864 -12.96,-4.128 -3.744,-3.264 -3.744,-9.216 0,-2.592 0.576,-5.76 2.208,-12.288 7.968,-16.896 5.856,-4.608 18.048,-4.608 12.192,0 21.504,2.4 l -4.992,15.36 q -8.352,-1.44 -13.44,-1.44 -5.088,0 -8.64,0.48 l -0.768,4.704 6.432,0.672 q 9.792,1.056 13.92,4.704 4.128,3.552 4.128,9.6 0,6.144 -2.688,12.672 -1.344,3.36 -2.976,5.664 -1.536,2.208 -4.032,3.84 -2.4,1.536 -4.416,2.4 -2.016,0.768 -5.088,1.152 -4.512,0.672 -11.04,0.672 -11.904,0 -21.6,-2.496 z"
   id="text1"
   style="font-style:italic;font-size:96px;font-family:'Changa One';-inkscape-font-specification:'Changa One Italic';text-align:center;fill:#ffffff;stroke-width:1.0089"
   transform="scale(0.96826305,1.0327772)"
   aria-label="S" /></svg>
