<?xml version="1.0" encoding="UTF-8" standalone="no"?>
<svg
   width="24px"
   height="24px"
   viewBox="0 0 24 24"
   version="1.1"
   id="svg3"
   sodipodi:docname="menu-icon-options.svg"
   inkscape:version="1.4.2 (f4327f4, 2025-05-13)"
   xmlns:inkscape="http://www.inkscape.org/namespaces/inkscape"
   xmlns:sodipodi="http://sodipodi.sourceforge.net/DTD/sodipodi-0.dtd"
   xmlns="http://www.w3.org/2000/svg"
   xmlns:svg="http://www.w3.org/2000/svg">
  <sodipodi:namedview
     id="namedview3"
     pagecolor="#505050"
     bordercolor="#ffffff"
     borderopacity="1"
     inkscape:showpageshadow="0"
     inkscape:pageopacity="0"
     inkscape:pagecheckerboard="1"
     inkscape:deskcolor="#505050"
     inkscape:zoom="16"
     inkscape:cx="12"
     inkscape:cy="12"
     inkscape:window-width="1920"
     inkscape:window-height="1017"
     inkscape:window-x="-8"
     inkscape:window-y="-8"
     inkscape:window-maximized="1"
     inkscape:current-layer="svg3" />
  <defs
     id="defs1">
    <style
       id="style1">.cls-1{fill:#fff;opacity:0;}.cls-2{fill:#231f20;}</style>
  </defs>
  <title
     id="title1">options-2</title>
  <path
     id="path1"
     style="fill:#ffffff"
     class="cls-2"
     d="m 19,9 a 3,3 0 0 0 -2.82,2 H 3 a 1,1 0 0 0 0,2 H 16.18 A 3,3 0 1 0 19,9 Z M 3,7 H 4.18 A 3,3 0 0 0 9.82,7 H 21 A 1,1 0 0 0 21,5 H 9.82 A 3,3 0 0 0 4.18,5 H 3 A 1,1 0 0 0 3,7 Z M 21,17 H 13.82 A 3,3 0 0 0 8.18,17 H 3 a 1,1 0 0 0 0,2 h 5.18 a 3,3 0 0 0 5.64,0 H 21 a 1,1 0 0 0 0,-2 z" />
</svg>
